<!-- SPDX-License-Identifier: CC-BY-4.0; SPDX-FileCopyrightText: 2026 Richard Majewski -->
<svg xmlns="http://www.w3.org/2000/svg" width="1200" height="760" viewBox="0 0 1200 760">
    <rect width="1200" height="760" fill="#0b1020"/><rect x="34" y="34" width="1132" height="692" rx="26" fill="#111827" stroke="#334155" stroke-width="2"/><text x="110" y="78" font-family="Inter,Segoe UI,Arial" font-size="34" font-weight="700" fill="#f8fafc">FORMAT-12 overhead</text><text x="110" y="108" font-family="Inter,Segoe UI,Arial" font-size="18" fill="#cbd5e1">The bridge architecture restored naming cheaply relative to metadata-heavy designs.</text><line x1="110" y1="130.0" x2="1140" y2="130.0" stroke="#243244" stroke-width="1"/><text x="94" y="135.0" text-anchor="end" font-family="Inter,Segoe UI,Arial" font-size="14" fill="#94a3b8">35,080</text><line x1="110" y1="226.0" x2="1140" y2="226.0" stroke="#243244" stroke-width="1"/><text x="94" y="231.0" text-anchor="end" font-family="Inter,Segoe UI,Arial" font-size="14" fill="#94a3b8">28,064</text><line x1="110" y1="322.0" x2="1140" y2="322.0" stroke="#243244" stroke-width="1"/><text x="94" y="327.0" text-anchor="end" font-family="Inter,Segoe UI,Arial" font-size="14" fill="#94a3b8">21,048</text><line x1="110" y1="418.0" x2="1140" y2="418.0" stroke="#243244" stroke-width="1"/><text x="94" y="423.0" text-anchor="end" font-family="Inter,Segoe UI,Arial" font-size="14" fill="#94a3b8">14,032</text><line x1="110" y1="514.0" x2="1140" y2="514.0" stroke="#243244" stroke-width="1"/><text x="94" y="519.0" text-anchor="end" font-family="Inter,Segoe UI,Arial" font-size="14" fill="#94a3b8">7,015</text><line x1="110" y1="610.0" x2="1140" y2="610.0" stroke="#243244" stroke-width="1"/><text x="94" y="615.0" text-anchor="end" font-family="Inter,Segoe UI,Arial" font-size="14" fill="#94a3b8">0</text><text x="28" y="370.0" transform="rotate(-90 28 370.0)" font-family="Inter,Segoe UI,Arial" font-size="16" fill="#94a3b8">Bytes over payload baseline</text><rect x="110.0" y="610.0" width="324.6666666666667" height="0.0" rx="14" fill="#f59e0b"/><text x="272.33333333333337" y="596.0" text-anchor="middle" font-family="Inter,Segoe UI,Arial" font-size="16" font-weight="700" fill="#e0f2fe">0</text><text x="272.33333333333337" y="644" text-anchor="middle" font-family="Inter,Segoe UI,Arial" font-size="15" fill="#cbd5e1">Payload only</text><rect x="462.6666666666667" y="576.175598631699" width="324.6666666666667" height="33.824401368301025" rx="14" fill="#f59e0b"/><text x="625.0" y="562.175598631699" text-anchor="middle" font-family="Inter,Segoe UI,Arial" font-size="16" font-weight="700" fill="#e0f2fe">2,472</text><text x="625.0" y="644" text-anchor="middle" font-family="Inter,Segoe UI,Arial" font-size="15" fill="#cbd5e1">Inline path</text><rect x="815.3333333333334" y="130.0" width="324.6666666666667" height="480.0" rx="14" fill="#f59e0b"/><text x="977.6666666666667" y="116.0" text-anchor="middle" font-family="Inter,Segoe UI,Arial" font-size="16" font-weight="700" fill="#e0f2fe">35,080</text><text x="977.6666666666667" y="644" text-anchor="middle" font-family="Inter,Segoe UI,Arial" font-size="15" fill="#cbd5e1">Manifest</text>
    </svg>