<svg xmlns="http://www.w3.org/2000/svg" width="1200" height="760" viewBox="0 0 1200 760">
    <rect width="1200" height="760" fill="#0b1020"/><rect x="34" y="34" width="1132" height="692" rx="26" fill="#111827" stroke="#334155" stroke-width="2"/><text x="110" y="78" font-family="Inter,Segoe UI,Arial" font-size="34" font-weight="700" fill="#f8fafc">FORMAT-12 named recovery</text><text x="110" y="108" font-family="Inter,Segoe UI,Arial" font-size="18" fill="#cbd5e1">Inline naming matched manifest-grade named recovery at a fraction of the overhead.</text><line x1="110" y1="130.0" x2="1140" y2="130.0" stroke="#243244" stroke-width="1"/><text x="94" y="135.0" text-anchor="end" font-family="Inter,Segoe UI,Arial" font-size="14" fill="#94a3b8">12</text><line x1="110" y1="226.0" x2="1140" y2="226.0" stroke="#243244" stroke-width="1"/><text x="94" y="231.0" text-anchor="end" font-family="Inter,Segoe UI,Arial" font-size="14" fill="#94a3b8">9</text><line x1="110" y1="322.0" x2="1140" y2="322.0" stroke="#243244" stroke-width="1"/><text x="94" y="327.0" text-anchor="end" font-family="Inter,Segoe UI,Arial" font-size="14" fill="#94a3b8">7</text><line x1="110" y1="418.0" x2="1140" y2="418.0" stroke="#243244" stroke-width="1"/><text x="94" y="423.0" text-anchor="end" font-family="Inter,Segoe UI,Arial" font-size="14" fill="#94a3b8">4</text><line x1="110" y1="514.0" x2="1140" y2="514.0" stroke="#243244" stroke-width="1"/><text x="94" y="519.0" text-anchor="end" font-family="Inter,Segoe UI,Arial" font-size="14" fill="#94a3b8">2</text><line x1="110" y1="610.0" x2="1140" y2="610.0" stroke="#243244" stroke-width="1"/><text x="94" y="615.0" text-anchor="end" font-family="Inter,Segoe UI,Arial" font-size="14" fill="#94a3b8">0</text><text x="28" y="370.0" transform="rotate(-90 28 370.0)" font-family="Inter,Segoe UI,Arial" font-size="16" fill="#94a3b8">Named recoveries</text><rect x="110.0" y="530.0" width="324.6666666666667" height="80.0" rx="14" fill="#38bdf8"/><text x="272.33333333333337" y="516.0" text-anchor="middle" font-family="Inter,Segoe UI,Arial" font-size="16" font-weight="700" fill="#e0f2fe">2</text><text x="272.33333333333337" y="644" text-anchor="middle" font-family="Inter,Segoe UI,Arial" font-size="15" fill="#cbd5e1">Payload only</text><rect x="462.6666666666667" y="130.0" width="324.6666666666667" height="480.0" rx="14" fill="#38bdf8"/><text x="625.0" y="116.0" text-anchor="middle" font-family="Inter,Segoe UI,Arial" font-size="16" font-weight="700" fill="#e0f2fe">12</text><text x="625.0" y="644" text-anchor="middle" font-family="Inter,Segoe UI,Arial" font-size="15" fill="#cbd5e1">Inline path</text><rect x="815.3333333333334" y="130.0" width="324.6666666666667" height="480.0" rx="14" fill="#38bdf8"/><text x="977.6666666666667" y="116.0" text-anchor="middle" font-family="Inter,Segoe UI,Arial" font-size="16" font-weight="700" fill="#e0f2fe">12</text><text x="977.6666666666667" y="644" text-anchor="middle" font-family="Inter,Segoe UI,Arial" font-size="15" fill="#cbd5e1">Manifest</text>
    </svg>