<!-- SPDX-License-Identifier: CC-BY-4.0; SPDX-FileCopyrightText: 2026 Richard Majewski -->
<svg xmlns="http://www.w3.org/2000/svg" width="1200" height="760" viewBox="0 0 1200 760"><rect width="1200" height="760" fill="#0b1020"/><rect x="34" y="34" width="1132" height="692" rx="26" fill="#111827" stroke="#334155" stroke-width="2"/><text x="110" y="78" font-family="Inter,Segoe UI,Arial" font-size="34" font-weight="700" fill="#f8fafc">FORMAT-14A resilience outcomes</text><text x="110" y="108" font-family="Inter,Segoe UI,Arial" font-size="18" fill="#cbd5e1">Header+tail mirrors preserved naming when one copy survived and degraded honestly when both were unavailable.</text><rect x="900" y="70" width="16" height="16" rx="4" fill="#38bdf8"/><text x="924" y="84" font-family="Inter,Segoe UI,Arial" font-size="15" fill="#cbd5e1">Named</text><rect x="1020" y="70" width="16" height="16" rx="4" fill="#22c55e"/><text x="1044" y="84" font-family="Inter,Segoe UI,Arial" font-size="15" fill="#cbd5e1">Anonymous</text><line x1="110" y1="140.0" x2="1140" y2="140.0" stroke="#243244" stroke-width="1"/><text x="94" y="145.0" text-anchor="end" font-family="Inter,Segoe UI,Arial" font-size="14" fill="#94a3b8">16</text><line x1="110" y1="234.0" x2="1140" y2="234.0" stroke="#243244" stroke-width="1"/><text x="94" y="239.0" text-anchor="end" font-family="Inter,Segoe UI,Arial" font-size="14" fill="#94a3b8">12</text><line x1="110" y1="328.0" x2="1140" y2="328.0" stroke="#243244" stroke-width="1"/><text x="94" y="333.0" text-anchor="end" font-family="Inter,Segoe UI,Arial" font-size="14" fill="#94a3b8">9</text><line x1="110" y1="422.0" x2="1140" y2="422.0" stroke="#243244" stroke-width="1"/><text x="94" y="427.0" text-anchor="end" font-family="Inter,Segoe UI,Arial" font-size="14" fill="#94a3b8">6</text><line x1="110" y1="516.0" x2="1140" y2="516.0" stroke="#243244" stroke-width="1"/><text x="94" y="521.0" text-anchor="end" font-family="Inter,Segoe UI,Arial" font-size="14" fill="#94a3b8">3</text><line x1="110" y1="610.0" x2="1140" y2="610.0" stroke="#243244" stroke-width="1"/><text x="94" y="615.0" text-anchor="end" font-family="Inter,Segoe UI,Arial" font-size="14" fill="#94a3b8">0</text><rect x="110.0" y="140.0" width="106.0" height="470.0" rx="12" fill="#38bdf8"/><text x="163.0" y="128.0" text-anchor="middle" font-family="Inter,Segoe UI,Arial" font-size="16" font-weight="700" fill="#f8fafc">16</text><rect x="236.0" y="610.0" width="106.0" height="0.0" rx="12" fill="#22c55e"/><text x="289.0" y="598.0" text-anchor="middle" font-family="Inter,Segoe UI,Arial" font-size="16" font-weight="700" fill="#f8fafc">0</text><text x="226.0" y="644" text-anchor="middle" font-family="Inter,Segoe UI,Arial" font-size="15" fill="#cbd5e1">Inline path</text><rect x="376.0" y="610.0" width="106.0" height="0.0" rx="12" fill="#38bdf8"/><text x="429.0" y="598.0" text-anchor="middle" font-family="Inter,Segoe UI,Arial" font-size="16" font-weight="700" fill="#f8fafc">0</text><rect x="502.0" y="140.0" width="106.0" height="470.0" rx="12" fill="#22c55e"/><text x="555.0" y="128.0" text-anchor="middle" font-family="Inter,Segoe UI,Arial" font-size="16" font-weight="700" fill="#f8fafc">16</text><text x="492.0" y="644" text-anchor="middle" font-family="Inter,Segoe UI,Arial" font-size="15" fill="#cbd5e1">Dict single</text><rect x="642.0" y="375.0" width="106.0" height="235.0" rx="12" fill="#38bdf8"/><text x="695.0" y="363.0" text-anchor="middle" font-family="Inter,Segoe UI,Arial" font-size="16" font-weight="700" fill="#f8fafc">8</text><rect x="768.0" y="375.0" width="106.0" height="235.0" rx="12" fill="#22c55e"/><text x="821.0" y="363.0" text-anchor="middle" font-family="Inter,Segoe UI,Arial" font-size="16" font-weight="700" fill="#f8fafc">8</text><text x="758.0" y="644" text-anchor="middle" font-family="Inter,Segoe UI,Arial" font-size="15" fill="#cbd5e1">Dict H+T</text><rect x="908.0" y="140.0" width="106.0" height="470.0" rx="12" fill="#38bdf8"/><text x="961.0" y="128.0" text-anchor="middle" font-family="Inter,Segoe UI,Arial" font-size="16" font-weight="700" fill="#f8fafc">16</text><rect x="1034.0" y="610.0" width="106.0" height="0.0" rx="12" fill="#22c55e"/><text x="1087.0" y="598.0" text-anchor="middle" font-family="Inter,Segoe UI,Arial" font-size="16" font-weight="700" fill="#f8fafc">0</text><text x="1024.0" y="644" text-anchor="middle" font-family="Inter,Segoe UI,Arial" font-size="15" fill="#cbd5e1">Manifest</text></svg>