<svg xmlns="http://www.w3.org/2000/svg" width="1200" height="760" viewBox="0 0 1200 760">
    <rect width="1200" height="760" fill="#0b1020"/><rect x="34" y="34" width="1132" height="692" rx="26" fill="#111827" stroke="#334155" stroke-width="2"/><text x="110" y="78" font-family="Inter,Segoe UI,Arial" font-size="34" font-weight="700" fill="#f8fafc">FORMAT-13 stress size hierarchy</text><text x="110" y="108" font-family="Inter,Segoe UI,Arial" font-size="18" fill="#cbd5e1">Dictionary indirection reduced stress-case size materially while preserving recovery semantics.</text><line x1="110" y1="130.0" x2="1140" y2="130.0" stroke="#243244" stroke-width="1"/><text x="94" y="135.0" text-anchor="end" font-family="Inter,Segoe UI,Arial" font-size="14" fill="#94a3b8">31,582,704</text><line x1="110" y1="226.0" x2="1140" y2="226.0" stroke="#243244" stroke-width="1"/><text x="94" y="231.0" text-anchor="end" font-family="Inter,Segoe UI,Arial" font-size="14" fill="#94a3b8">25,266,163</text><line x1="110" y1="322.0" x2="1140" y2="322.0" stroke="#243244" stroke-width="1"/><text x="94" y="327.0" text-anchor="end" font-family="Inter,Segoe UI,Arial" font-size="14" fill="#94a3b8">18,949,622</text><line x1="110" y1="418.0" x2="1140" y2="418.0" stroke="#243244" stroke-width="1"/><text x="94" y="423.0" text-anchor="end" font-family="Inter,Segoe UI,Arial" font-size="14" fill="#94a3b8">12,633,081</text><line x1="110" y1="514.0" x2="1140" y2="514.0" stroke="#243244" stroke-width="1"/><text x="94" y="519.0" text-anchor="end" font-family="Inter,Segoe UI,Arial" font-size="14" fill="#94a3b8">6,316,540</text><line x1="110" y1="610.0" x2="1140" y2="610.0" stroke="#243244" stroke-width="1"/><text x="94" y="615.0" text-anchor="end" font-family="Inter,Segoe UI,Arial" font-size="14" fill="#94a3b8">0</text><text x="28" y="370.0" transform="rotate(-90 28 370.0)" font-family="Inter,Segoe UI,Arial" font-size="16" fill="#94a3b8">Archive bytes</text><rect x="110.0" y="276.24514987697063" width="183.6" height="333.75485012302937" rx="14" fill="#38bdf8"/><text x="201.8" y="262.24514987697063" text-anchor="middle" font-family="Inter,Segoe UI,Arial" font-size="16" font-weight="700" fill="#e0f2fe">22.0M</text><text x="201.8" y="644" text-anchor="middle" font-family="Inter,Segoe UI,Arial" font-size="15" fill="#cbd5e1">Payload</text><rect x="321.6" y="233.19013090202793" width="183.6" height="376.80986909797207" rx="14" fill="#38bdf8"/><text x="413.40000000000003" y="219.19013090202793" text-anchor="middle" font-family="Inter,Segoe UI,Arial" font-size="16" font-weight="700" fill="#e0f2fe">24.8M</text><text x="413.40000000000003" y="644" text-anchor="middle" font-family="Inter,Segoe UI,Arial" font-size="15" fill="#cbd5e1">Inline path</text><rect x="533.2" y="263.30528760298677" width="183.6" height="346.69471239701323" rx="14" fill="#38bdf8"/><text x="625.0" y="249.30528760298677" text-anchor="middle" font-family="Inter,Segoe UI,Arial" font-size="16" font-weight="700" fill="#e0f2fe">22.8M</text><text x="625.0" y="644" text-anchor="middle" font-family="Inter,Segoe UI,Arial" font-size="15" fill="#cbd5e1">Dict single</text><rect x="744.8" y="249.83555556231028" width="183.6" height="360.1644444376897" rx="14" fill="#38bdf8"/><text x="836.5999999999999" y="235.83555556231028" text-anchor="middle" font-family="Inter,Segoe UI,Arial" font-size="16" font-weight="700" fill="#e0f2fe">23.7M</text><text x="836.5999999999999" y="644" text-anchor="middle" font-family="Inter,Segoe UI,Arial" font-size="15" fill="#cbd5e1">Dict H+T</text><rect x="956.4" y="130.0" width="183.6" height="480.0" rx="14" fill="#38bdf8"/><text x="1048.2" y="116.0" text-anchor="middle" font-family="Inter,Segoe UI,Arial" font-size="16" font-weight="700" fill="#e0f2fe">31.6M</text><text x="1048.2" y="644" text-anchor="middle" font-family="Inter,Segoe UI,Arial" font-size="15" fill="#cbd5e1">Manifest</text>
    </svg>